<svg width="196" height="32" viewBox="0 0 196 32" fill="none" xmlns="http://www.w3.org/2000/svg">
<path d="M75.8857 0.439453L68.0049 23.5549H59.6047L56.3784 19.953C58.341 19.7577 60.3222 19.2191 61.8278 17.9307C63.9254 16.1366 64.8711 12.9117 64.9739 10.2432C65.087 7.30123 63.7658 4.34627 61.5804 2.38978C59.7281 0.7307 57.4885 0.439453 55.0743 0.439453H0.0148926V8.43127H16.2089V31.5542H25.3465V8.43127H36.2302V31.5542H45.3672V21.3544L54.5027 31.5542H74.9359L76.8561 25.9075H88.2463L90.1658 31.5549H99.8221L89.2557 0.439453H75.8857ZM54.5027 10.3076C54.4746 11.539 53.9209 13.0672 52.549 13.0672H45.3665V7.41978H52.5291C53.9202 7.41978 54.5322 8.99115 54.5021 10.3069L54.5027 10.3076ZM79.2231 18.9422L82.5495 9.15082L85.8779 18.9422H79.2224H79.2231Z" fill="white"/>
<path d="M115.966 0.439453C113.524 0.439453 111.222 0.751944 109.06 1.37693C106.898 2.00191 104.984 2.94966 103.318 4.22087C101.651 5.49207 100.348 7.08674 99.4068 9.00417C98.4659 10.9223 97.9951 13.1022 97.9951 15.5439C97.9951 19.0203 98.7818 21.9581 100.355 24.3567C101.927 26.7558 104.078 28.5554 106.808 29.7547C109.537 30.9539 112.59 31.5535 115.965 31.5535H129.05V22.4166H119.17C116.901 22.4166 114.456 22.5448 112.275 21.8149C109.49 20.8829 108.573 18.6153 108.466 15.8591C108.583 13.6333 109.058 11.7501 111.2 10.6941C113.646 9.48661 116.513 9.57707 119.17 9.57707H129.05V0.439453H115.965H115.966Z" fill="white"/>
<path d="M179.26 8.43881H195.983V0.439453H173.277C170.207 0.439453 166.982 2.44323 166.144 6.1287C165.432 9.26389 166.814 14.8599 171.991 20.1175C172.62 20.7562 173.094 21.4305 173.003 22.4166C172.924 23.2664 171.564 23.5542 170.787 23.5542H156.857L148.717 16.4224L163.224 0.439453H150.875L141.67 10.5975V0.439453H132.54V31.5542H141.67V22.4173L152.148 31.5542H178.449C182.09 31.4706 185.571 28.3827 185.571 24.162C185.571 20.3114 182.864 16.7698 179.085 12.4806C177.444 10.6173 176.948 8.43881 179.259 8.43812L179.26 8.43881Z" fill="white"/>
</svg>
